G04 EAGLE Gerber RS-274X export*
G75*
%MOMM*%
%FSLAX34Y34*%
%LPD*%
%INBottom Copper*%
%IPPOS*%
%AMOC8*
5,1,8,0,0,1.08239X$1,22.5*%
G01*
%ADD10C,0.756400*%

G36*
X328698Y10164D02*
X328698Y10164D01*
X328717Y10162D01*
X328819Y10184D01*
X328921Y10200D01*
X328938Y10210D01*
X328958Y10214D01*
X329047Y10267D01*
X329138Y10316D01*
X329152Y10330D01*
X329169Y10340D01*
X329236Y10419D01*
X329308Y10494D01*
X329316Y10512D01*
X329329Y10527D01*
X329368Y10623D01*
X329411Y10717D01*
X329413Y10737D01*
X329421Y10755D01*
X329439Y10922D01*
X329439Y471578D01*
X329436Y471598D01*
X329438Y471617D01*
X329416Y471719D01*
X329400Y471821D01*
X329390Y471838D01*
X329386Y471858D01*
X329333Y471947D01*
X329284Y472038D01*
X329270Y472052D01*
X329260Y472069D01*
X329181Y472136D01*
X329106Y472208D01*
X329088Y472216D01*
X329073Y472229D01*
X328977Y472268D01*
X328883Y472311D01*
X328863Y472313D01*
X328845Y472321D01*
X328678Y472339D01*
X10922Y472339D01*
X10902Y472336D01*
X10883Y472338D01*
X10781Y472316D01*
X10679Y472300D01*
X10662Y472290D01*
X10642Y472286D01*
X10553Y472233D01*
X10462Y472184D01*
X10448Y472170D01*
X10431Y472160D01*
X10364Y472081D01*
X10292Y472006D01*
X10284Y471988D01*
X10271Y471973D01*
X10232Y471877D01*
X10189Y471783D01*
X10187Y471763D01*
X10179Y471745D01*
X10161Y471578D01*
X10161Y40736D01*
X10172Y40666D01*
X10174Y40594D01*
X10192Y40545D01*
X10200Y40494D01*
X10234Y40430D01*
X10259Y40363D01*
X10291Y40322D01*
X10316Y40276D01*
X10368Y40227D01*
X10412Y40171D01*
X10456Y40143D01*
X10494Y40107D01*
X10559Y40077D01*
X10619Y40038D01*
X10670Y40025D01*
X10717Y40003D01*
X10788Y39995D01*
X10858Y39978D01*
X10910Y39982D01*
X10961Y39976D01*
X11032Y39991D01*
X11103Y39997D01*
X11151Y40017D01*
X11202Y40028D01*
X11263Y40065D01*
X11329Y40093D01*
X11385Y40138D01*
X11413Y40155D01*
X11428Y40172D01*
X11460Y40198D01*
X13889Y42627D01*
X21358Y45721D01*
X29442Y45721D01*
X36911Y42627D01*
X42627Y36911D01*
X45721Y29442D01*
X45721Y21358D01*
X42627Y13889D01*
X40198Y11460D01*
X40156Y11402D01*
X40107Y11350D01*
X40085Y11303D01*
X40055Y11261D01*
X40033Y11192D01*
X40003Y11127D01*
X39998Y11075D01*
X39982Y11025D01*
X39984Y10954D01*
X39976Y10883D01*
X39987Y10832D01*
X39989Y10780D01*
X40013Y10712D01*
X40028Y10642D01*
X40055Y10597D01*
X40073Y10549D01*
X40118Y10493D01*
X40155Y10431D01*
X40194Y10397D01*
X40227Y10357D01*
X40287Y10318D01*
X40342Y10271D01*
X40390Y10252D01*
X40434Y10224D01*
X40503Y10206D01*
X40570Y10179D01*
X40641Y10171D01*
X40672Y10163D01*
X40695Y10165D01*
X40736Y10161D01*
X328678Y10161D01*
X328698Y10164D01*
G37*
D10*
X38100Y330200D03*
X177800Y393700D03*
X152400Y254000D03*
X304800Y203200D03*
X127000Y304800D03*
X190500Y457200D03*
M02*
