G04 EAGLE Gerber RS-274X export*
G75*
%MOMM*%
%FSLAX34Y34*%
%LPD*%
%INTop Copper*%
%IPPOS*%
%AMOC8*
5,1,8,0,0,1.08239X$1,22.5*%
G01*
%ADD10C,0.000000*%
%ADD11R,1.500000X1.300000*%
%ADD12R,2.032000X0.660400*%
%ADD13R,1.200000X1.200000*%
%ADD14R,1.400000X1.100000*%
%ADD15R,1.100000X1.400000*%
%ADD16R,3.900000X3.900000*%
%ADD17R,3.200000X3.200000*%
%ADD18C,0.254000*%
%ADD19C,0.756400*%

G36*
X328698Y10164D02*
X328698Y10164D01*
X328717Y10162D01*
X328819Y10184D01*
X328921Y10200D01*
X328938Y10210D01*
X328958Y10214D01*
X329047Y10267D01*
X329138Y10316D01*
X329152Y10330D01*
X329169Y10340D01*
X329236Y10419D01*
X329308Y10494D01*
X329316Y10512D01*
X329329Y10527D01*
X329368Y10623D01*
X329411Y10717D01*
X329413Y10737D01*
X329421Y10755D01*
X329439Y10922D01*
X329439Y471578D01*
X329436Y471598D01*
X329438Y471617D01*
X329416Y471719D01*
X329400Y471821D01*
X329390Y471838D01*
X329386Y471858D01*
X329333Y471947D01*
X329284Y472038D01*
X329270Y472052D01*
X329260Y472069D01*
X329181Y472136D01*
X329106Y472208D01*
X329088Y472216D01*
X329073Y472229D01*
X328977Y472268D01*
X328883Y472311D01*
X328863Y472313D01*
X328845Y472321D01*
X328678Y472339D01*
X10922Y472339D01*
X10902Y472336D01*
X10883Y472338D01*
X10781Y472316D01*
X10679Y472300D01*
X10662Y472290D01*
X10642Y472286D01*
X10553Y472233D01*
X10462Y472184D01*
X10448Y472170D01*
X10431Y472160D01*
X10364Y472081D01*
X10292Y472006D01*
X10284Y471988D01*
X10271Y471973D01*
X10232Y471877D01*
X10189Y471783D01*
X10187Y471763D01*
X10179Y471745D01*
X10161Y471578D01*
X10161Y40736D01*
X10172Y40666D01*
X10174Y40594D01*
X10192Y40545D01*
X10200Y40494D01*
X10234Y40430D01*
X10259Y40363D01*
X10291Y40322D01*
X10316Y40276D01*
X10368Y40227D01*
X10412Y40171D01*
X10456Y40143D01*
X10494Y40107D01*
X10559Y40077D01*
X10619Y40038D01*
X10670Y40025D01*
X10717Y40003D01*
X10788Y39995D01*
X10858Y39978D01*
X10910Y39982D01*
X10961Y39976D01*
X11032Y39991D01*
X11103Y39997D01*
X11151Y40017D01*
X11202Y40028D01*
X11263Y40065D01*
X11329Y40093D01*
X11385Y40138D01*
X11413Y40155D01*
X11428Y40172D01*
X11460Y40198D01*
X13889Y42627D01*
X21358Y45721D01*
X29442Y45721D01*
X36911Y42627D01*
X42627Y36911D01*
X45721Y29442D01*
X45721Y21358D01*
X42627Y13889D01*
X40198Y11460D01*
X40156Y11402D01*
X40107Y11350D01*
X40085Y11303D01*
X40055Y11261D01*
X40033Y11192D01*
X40003Y11127D01*
X39998Y11075D01*
X39982Y11025D01*
X39984Y10954D01*
X39976Y10883D01*
X39987Y10832D01*
X39989Y10780D01*
X40013Y10712D01*
X40028Y10642D01*
X40055Y10597D01*
X40073Y10549D01*
X40118Y10493D01*
X40155Y10431D01*
X40194Y10397D01*
X40227Y10357D01*
X40287Y10318D01*
X40342Y10271D01*
X40390Y10252D01*
X40434Y10224D01*
X40503Y10206D01*
X40570Y10179D01*
X40641Y10171D01*
X40672Y10163D01*
X40695Y10165D01*
X40736Y10161D01*
X328678Y10161D01*
X328698Y10164D01*
G37*
%LPC*%
G36*
X103516Y81535D02*
X103516Y81535D01*
X101135Y83916D01*
X101135Y119284D01*
X103516Y121665D01*
X120904Y121665D01*
X120924Y121668D01*
X120943Y121666D01*
X121045Y121688D01*
X121147Y121704D01*
X121164Y121714D01*
X121184Y121718D01*
X121273Y121771D01*
X121364Y121820D01*
X121378Y121834D01*
X121395Y121844D01*
X121462Y121923D01*
X121534Y121998D01*
X121542Y122016D01*
X121555Y122031D01*
X121594Y122127D01*
X121637Y122221D01*
X121639Y122241D01*
X121647Y122259D01*
X121665Y122426D01*
X121665Y238775D01*
X121651Y238865D01*
X121643Y238956D01*
X121631Y238986D01*
X121626Y239018D01*
X121583Y239098D01*
X121547Y239182D01*
X121521Y239214D01*
X121510Y239235D01*
X121487Y239257D01*
X121442Y239313D01*
X91743Y269012D01*
X90931Y270973D01*
X90931Y290322D01*
X90929Y290333D01*
X90930Y290340D01*
X90929Y290347D01*
X90930Y290361D01*
X90908Y290463D01*
X90892Y290565D01*
X90882Y290582D01*
X90878Y290602D01*
X90825Y290691D01*
X90776Y290782D01*
X90762Y290796D01*
X90752Y290813D01*
X90673Y290880D01*
X90598Y290952D01*
X90580Y290960D01*
X90565Y290973D01*
X90469Y291012D01*
X90375Y291055D01*
X90355Y291057D01*
X90337Y291065D01*
X90170Y291083D01*
X84422Y291083D01*
X82041Y293464D01*
X82041Y303436D01*
X82867Y304262D01*
X82879Y304278D01*
X82895Y304290D01*
X82951Y304378D01*
X83011Y304461D01*
X83017Y304481D01*
X83028Y304497D01*
X83053Y304598D01*
X83083Y304697D01*
X83083Y304717D01*
X83088Y304736D01*
X83080Y304839D01*
X83077Y304942D01*
X83070Y304961D01*
X83068Y304981D01*
X83028Y305076D01*
X82992Y305173D01*
X82980Y305189D01*
X82972Y305207D01*
X82867Y305338D01*
X82613Y305592D01*
X82539Y305645D01*
X82470Y305705D01*
X82440Y305717D01*
X82414Y305736D01*
X82327Y305763D01*
X82242Y305797D01*
X82201Y305801D01*
X82178Y305808D01*
X82146Y305807D01*
X82075Y305815D01*
X81489Y305815D01*
X79528Y306627D01*
X58977Y327178D01*
X58165Y329139D01*
X58165Y356661D01*
X58977Y358622D01*
X85878Y385523D01*
X87839Y386335D01*
X111775Y386335D01*
X111865Y386349D01*
X111956Y386357D01*
X111986Y386369D01*
X112018Y386374D01*
X112098Y386417D01*
X112182Y386453D01*
X112214Y386479D01*
X112235Y386490D01*
X112257Y386513D01*
X112313Y386558D01*
X131942Y406187D01*
X131995Y406261D01*
X132055Y406330D01*
X132067Y406360D01*
X132086Y406387D01*
X132113Y406473D01*
X132147Y406558D01*
X132151Y406599D01*
X132158Y406622D01*
X132157Y406654D01*
X132165Y406725D01*
X132165Y420974D01*
X132162Y420994D01*
X132164Y421013D01*
X132142Y421115D01*
X132126Y421217D01*
X132116Y421234D01*
X132112Y421254D01*
X132059Y421343D01*
X132010Y421434D01*
X131996Y421448D01*
X131986Y421465D01*
X131907Y421532D01*
X131832Y421604D01*
X131814Y421612D01*
X131799Y421625D01*
X131703Y421664D01*
X131609Y421707D01*
X131589Y421709D01*
X131571Y421717D01*
X131404Y421735D01*
X129816Y421735D01*
X127538Y424013D01*
X127522Y424025D01*
X127510Y424041D01*
X127422Y424097D01*
X127339Y424157D01*
X127320Y424163D01*
X127303Y424174D01*
X127202Y424199D01*
X127103Y424229D01*
X127084Y424229D01*
X127064Y424234D01*
X126961Y424226D01*
X126858Y424223D01*
X126839Y424216D01*
X126819Y424214D01*
X126724Y424174D01*
X126627Y424138D01*
X126611Y424126D01*
X126593Y424118D01*
X126462Y424013D01*
X124184Y421735D01*
X108816Y421735D01*
X106435Y424116D01*
X106435Y425196D01*
X106432Y425216D01*
X106434Y425235D01*
X106412Y425337D01*
X106396Y425439D01*
X106386Y425456D01*
X106382Y425476D01*
X106329Y425565D01*
X106280Y425656D01*
X106266Y425670D01*
X106256Y425687D01*
X106177Y425754D01*
X106102Y425826D01*
X106084Y425834D01*
X106069Y425847D01*
X105973Y425886D01*
X105879Y425929D01*
X105859Y425931D01*
X105841Y425939D01*
X105674Y425957D01*
X83826Y425957D01*
X83806Y425954D01*
X83787Y425956D01*
X83685Y425934D01*
X83583Y425918D01*
X83566Y425908D01*
X83546Y425904D01*
X83457Y425851D01*
X83366Y425802D01*
X83352Y425788D01*
X83335Y425778D01*
X83268Y425699D01*
X83196Y425624D01*
X83188Y425606D01*
X83175Y425591D01*
X83136Y425495D01*
X83093Y425401D01*
X83091Y425381D01*
X83083Y425363D01*
X83065Y425196D01*
X83065Y423116D01*
X80684Y420735D01*
X66316Y420735D01*
X63935Y423116D01*
X63935Y440484D01*
X66316Y442865D01*
X80684Y442865D01*
X83065Y440484D01*
X83065Y437388D01*
X83068Y437368D01*
X83066Y437349D01*
X83088Y437247D01*
X83104Y437145D01*
X83114Y437128D01*
X83118Y437108D01*
X83171Y437019D01*
X83220Y436928D01*
X83234Y436914D01*
X83244Y436897D01*
X83323Y436830D01*
X83398Y436758D01*
X83416Y436750D01*
X83431Y436737D01*
X83527Y436698D01*
X83621Y436655D01*
X83641Y436653D01*
X83659Y436645D01*
X83826Y436627D01*
X105674Y436627D01*
X105694Y436630D01*
X105713Y436628D01*
X105815Y436650D01*
X105917Y436666D01*
X105934Y436676D01*
X105954Y436680D01*
X106043Y436733D01*
X106134Y436782D01*
X106148Y436796D01*
X106165Y436806D01*
X106232Y436885D01*
X106304Y436960D01*
X106312Y436978D01*
X106325Y436993D01*
X106364Y437089D01*
X106407Y437183D01*
X106409Y437203D01*
X106417Y437221D01*
X106435Y437388D01*
X106435Y439484D01*
X108816Y441865D01*
X124184Y441865D01*
X126462Y439587D01*
X126478Y439575D01*
X126490Y439559D01*
X126578Y439503D01*
X126661Y439443D01*
X126680Y439437D01*
X126697Y439426D01*
X126798Y439401D01*
X126897Y439371D01*
X126916Y439371D01*
X126936Y439366D01*
X127039Y439374D01*
X127142Y439377D01*
X127161Y439384D01*
X127181Y439386D01*
X127276Y439426D01*
X127373Y439462D01*
X127389Y439474D01*
X127407Y439482D01*
X127538Y439587D01*
X129816Y441865D01*
X145184Y441865D01*
X147565Y439484D01*
X147565Y437388D01*
X147568Y437368D01*
X147566Y437349D01*
X147588Y437247D01*
X147604Y437145D01*
X147614Y437128D01*
X147618Y437108D01*
X147671Y437019D01*
X147720Y436928D01*
X147734Y436914D01*
X147744Y436897D01*
X147823Y436830D01*
X147898Y436758D01*
X147916Y436750D01*
X147931Y436737D01*
X148027Y436698D01*
X148121Y436655D01*
X148141Y436653D01*
X148159Y436645D01*
X148326Y436627D01*
X208274Y436627D01*
X208294Y436630D01*
X208313Y436628D01*
X208415Y436650D01*
X208517Y436666D01*
X208534Y436676D01*
X208554Y436680D01*
X208643Y436733D01*
X208734Y436782D01*
X208748Y436796D01*
X208765Y436806D01*
X208832Y436885D01*
X208904Y436960D01*
X208912Y436978D01*
X208925Y436993D01*
X208964Y437089D01*
X209007Y437183D01*
X209009Y437203D01*
X209017Y437221D01*
X209035Y437388D01*
X209035Y440484D01*
X211416Y442865D01*
X225784Y442865D01*
X228062Y440587D01*
X228078Y440575D01*
X228090Y440559D01*
X228178Y440503D01*
X228261Y440443D01*
X228280Y440437D01*
X228297Y440426D01*
X228398Y440401D01*
X228497Y440371D01*
X228516Y440371D01*
X228536Y440366D01*
X228639Y440374D01*
X228742Y440377D01*
X228761Y440384D01*
X228781Y440386D01*
X228876Y440426D01*
X228973Y440462D01*
X228989Y440474D01*
X229007Y440482D01*
X229138Y440587D01*
X231416Y442865D01*
X245784Y442865D01*
X248165Y440484D01*
X248165Y437388D01*
X248168Y437368D01*
X248166Y437349D01*
X248188Y437247D01*
X248204Y437145D01*
X248214Y437128D01*
X248218Y437108D01*
X248271Y437019D01*
X248320Y436928D01*
X248334Y436914D01*
X248344Y436897D01*
X248423Y436830D01*
X248498Y436758D01*
X248516Y436750D01*
X248531Y436737D01*
X248627Y436698D01*
X248721Y436655D01*
X248741Y436653D01*
X248759Y436645D01*
X248926Y436627D01*
X270774Y436627D01*
X270794Y436630D01*
X270813Y436628D01*
X270915Y436650D01*
X271017Y436666D01*
X271034Y436676D01*
X271054Y436680D01*
X271143Y436733D01*
X271234Y436782D01*
X271248Y436796D01*
X271265Y436806D01*
X271332Y436885D01*
X271404Y436960D01*
X271412Y436978D01*
X271425Y436993D01*
X271464Y437089D01*
X271507Y437183D01*
X271509Y437203D01*
X271517Y437221D01*
X271535Y437388D01*
X271535Y439484D01*
X273916Y441865D01*
X289284Y441865D01*
X291562Y439587D01*
X291578Y439575D01*
X291590Y439559D01*
X291678Y439503D01*
X291761Y439443D01*
X291780Y439437D01*
X291797Y439426D01*
X291898Y439401D01*
X291997Y439371D01*
X292016Y439371D01*
X292036Y439366D01*
X292139Y439374D01*
X292242Y439377D01*
X292261Y439384D01*
X292281Y439386D01*
X292376Y439426D01*
X292473Y439462D01*
X292489Y439474D01*
X292507Y439482D01*
X292638Y439587D01*
X294916Y441865D01*
X310284Y441865D01*
X312665Y439484D01*
X312665Y424116D01*
X310284Y421735D01*
X309372Y421735D01*
X309352Y421732D01*
X309333Y421734D01*
X309231Y421712D01*
X309129Y421696D01*
X309112Y421686D01*
X309092Y421682D01*
X309003Y421629D01*
X308912Y421580D01*
X308898Y421566D01*
X308881Y421556D01*
X308814Y421477D01*
X308742Y421402D01*
X308734Y421384D01*
X308721Y421369D01*
X308682Y421273D01*
X308639Y421179D01*
X308637Y421159D01*
X308629Y421141D01*
X308611Y420974D01*
X308611Y405847D01*
X307799Y403886D01*
X277769Y373856D01*
X277757Y373840D01*
X277742Y373828D01*
X277685Y373740D01*
X277625Y373657D01*
X277619Y373638D01*
X277609Y373621D01*
X277583Y373520D01*
X277553Y373421D01*
X277553Y373402D01*
X277548Y373382D01*
X277556Y373279D01*
X277559Y373176D01*
X277566Y373157D01*
X277568Y373137D01*
X277608Y373042D01*
X277644Y372945D01*
X277656Y372929D01*
X277664Y372911D01*
X277765Y372785D01*
X277765Y370175D01*
X277779Y370085D01*
X277787Y369994D01*
X277799Y369964D01*
X277804Y369932D01*
X277847Y369852D01*
X277883Y369768D01*
X277909Y369736D01*
X277920Y369715D01*
X277943Y369693D01*
X277988Y369637D01*
X310339Y337286D01*
X311151Y335325D01*
X311151Y273259D01*
X310339Y271298D01*
X308731Y269690D01*
X258542Y219501D01*
X258489Y219427D01*
X258429Y219358D01*
X258417Y219328D01*
X258398Y219302D01*
X258371Y219215D01*
X258337Y219130D01*
X258333Y219089D01*
X258326Y219066D01*
X258327Y219034D01*
X258319Y218963D01*
X258319Y194041D01*
X258333Y193951D01*
X258341Y193860D01*
X258353Y193830D01*
X258358Y193798D01*
X258401Y193718D01*
X258437Y193634D01*
X258463Y193602D01*
X258474Y193581D01*
X258497Y193559D01*
X258542Y193503D01*
X283923Y168122D01*
X284735Y166161D01*
X284735Y122426D01*
X284738Y122406D01*
X284736Y122387D01*
X284758Y122285D01*
X284774Y122183D01*
X284784Y122166D01*
X284788Y122146D01*
X284841Y122057D01*
X284890Y121966D01*
X284904Y121952D01*
X284914Y121935D01*
X284993Y121868D01*
X285068Y121796D01*
X285086Y121788D01*
X285101Y121775D01*
X285197Y121736D01*
X285291Y121693D01*
X285311Y121691D01*
X285329Y121683D01*
X285496Y121665D01*
X302884Y121665D01*
X305265Y119284D01*
X305265Y83916D01*
X302884Y81535D01*
X267516Y81535D01*
X265135Y83916D01*
X265135Y119284D01*
X267516Y121665D01*
X273304Y121665D01*
X273324Y121668D01*
X273343Y121666D01*
X273445Y121688D01*
X273547Y121704D01*
X273564Y121714D01*
X273584Y121718D01*
X273673Y121771D01*
X273764Y121820D01*
X273778Y121834D01*
X273795Y121844D01*
X273862Y121923D01*
X273934Y121998D01*
X273942Y122016D01*
X273955Y122031D01*
X273994Y122127D01*
X274037Y122221D01*
X274039Y122241D01*
X274047Y122259D01*
X274065Y122426D01*
X274065Y162575D01*
X274051Y162665D01*
X274043Y162756D01*
X274031Y162786D01*
X274026Y162818D01*
X273983Y162898D01*
X273947Y162982D01*
X273921Y163014D01*
X273910Y163035D01*
X273887Y163057D01*
X273842Y163113D01*
X254538Y182417D01*
X254522Y182429D01*
X254510Y182444D01*
X254422Y182501D01*
X254339Y182561D01*
X254320Y182567D01*
X254303Y182577D01*
X254202Y182603D01*
X254103Y182633D01*
X254084Y182633D01*
X254064Y182638D01*
X253961Y182629D01*
X253858Y182627D01*
X253839Y182620D01*
X253819Y182618D01*
X253724Y182578D01*
X253627Y182542D01*
X253611Y182530D01*
X253593Y182522D01*
X253462Y182417D01*
X244322Y173277D01*
X242361Y172465D01*
X154925Y172465D01*
X154835Y172451D01*
X154744Y172443D01*
X154714Y172431D01*
X154682Y172426D01*
X154602Y172383D01*
X154518Y172347D01*
X154486Y172321D01*
X154465Y172310D01*
X154443Y172287D01*
X154387Y172242D01*
X132558Y150413D01*
X132505Y150339D01*
X132445Y150270D01*
X132433Y150240D01*
X132414Y150213D01*
X132387Y150127D01*
X132353Y150042D01*
X132349Y150001D01*
X132342Y149978D01*
X132343Y149946D01*
X132335Y149875D01*
X132335Y122426D01*
X132338Y122406D01*
X132336Y122387D01*
X132358Y122285D01*
X132374Y122183D01*
X132384Y122166D01*
X132388Y122146D01*
X132441Y122057D01*
X132490Y121966D01*
X132504Y121952D01*
X132514Y121935D01*
X132593Y121868D01*
X132668Y121796D01*
X132686Y121788D01*
X132701Y121775D01*
X132797Y121736D01*
X132891Y121693D01*
X132911Y121691D01*
X132929Y121683D01*
X133096Y121665D01*
X138884Y121665D01*
X141265Y119284D01*
X141265Y83916D01*
X138884Y81535D01*
X103516Y81535D01*
G37*
%LPD*%
G36*
X133206Y166372D02*
X133206Y166372D01*
X133277Y166378D01*
X133325Y166398D01*
X133376Y166409D01*
X133437Y166446D01*
X133503Y166474D01*
X133559Y166519D01*
X133587Y166535D01*
X133602Y166553D01*
X133634Y166579D01*
X149378Y182323D01*
X151339Y183135D01*
X238775Y183135D01*
X238865Y183149D01*
X238956Y183157D01*
X238986Y183169D01*
X239018Y183174D01*
X239098Y183217D01*
X239182Y183253D01*
X239214Y183279D01*
X239235Y183290D01*
X239257Y183313D01*
X239313Y183358D01*
X247426Y191471D01*
X247479Y191545D01*
X247539Y191614D01*
X247551Y191644D01*
X247570Y191671D01*
X247597Y191757D01*
X247631Y191842D01*
X247635Y191883D01*
X247642Y191906D01*
X247641Y191938D01*
X247649Y192009D01*
X247649Y222549D01*
X248461Y224510D01*
X250069Y226118D01*
X300258Y276307D01*
X300311Y276381D01*
X300371Y276450D01*
X300383Y276480D01*
X300402Y276506D01*
X300429Y276593D01*
X300463Y276678D01*
X300467Y276719D01*
X300474Y276742D01*
X300473Y276774D01*
X300481Y276845D01*
X300481Y331739D01*
X300467Y331829D01*
X300459Y331920D01*
X300447Y331950D01*
X300442Y331982D01*
X300399Y332062D01*
X300363Y332146D01*
X300337Y332178D01*
X300326Y332199D01*
X300303Y332221D01*
X300258Y332277D01*
X279064Y353471D01*
X279006Y353513D01*
X278954Y353563D01*
X278907Y353585D01*
X278865Y353615D01*
X278796Y353636D01*
X278731Y353666D01*
X278679Y353672D01*
X278629Y353687D01*
X278558Y353685D01*
X278487Y353693D01*
X278436Y353682D01*
X278384Y353681D01*
X278316Y353656D01*
X278246Y353641D01*
X278201Y353614D01*
X278153Y353596D01*
X278097Y353552D01*
X278035Y353515D01*
X278001Y353475D01*
X277961Y353443D01*
X277922Y353382D01*
X277875Y353328D01*
X277856Y353280D01*
X277828Y353236D01*
X277810Y353166D01*
X277783Y353100D01*
X277775Y353028D01*
X277767Y352997D01*
X277769Y352974D01*
X277765Y352933D01*
X277765Y338416D01*
X275384Y336035D01*
X272796Y336035D01*
X272776Y336032D01*
X272757Y336034D01*
X272655Y336012D01*
X272553Y335996D01*
X272536Y335986D01*
X272516Y335982D01*
X272427Y335929D01*
X272336Y335880D01*
X272322Y335866D01*
X272305Y335856D01*
X272238Y335777D01*
X272166Y335702D01*
X272158Y335684D01*
X272145Y335669D01*
X272106Y335573D01*
X272063Y335479D01*
X272061Y335459D01*
X272053Y335441D01*
X272035Y335274D01*
X272035Y312426D01*
X272038Y312406D01*
X272036Y312387D01*
X272058Y312285D01*
X272074Y312183D01*
X272084Y312166D01*
X272088Y312146D01*
X272141Y312057D01*
X272190Y311966D01*
X272204Y311952D01*
X272214Y311935D01*
X272293Y311868D01*
X272368Y311796D01*
X272386Y311788D01*
X272401Y311775D01*
X272497Y311736D01*
X272591Y311693D01*
X272611Y311691D01*
X272629Y311683D01*
X272796Y311665D01*
X275384Y311665D01*
X277765Y309284D01*
X277765Y294916D01*
X275487Y292638D01*
X275475Y292622D01*
X275459Y292610D01*
X275403Y292522D01*
X275343Y292439D01*
X275337Y292420D01*
X275326Y292403D01*
X275301Y292302D01*
X275271Y292203D01*
X275271Y292184D01*
X275266Y292164D01*
X275274Y292061D01*
X275277Y291958D01*
X275284Y291939D01*
X275286Y291919D01*
X275326Y291824D01*
X275362Y291727D01*
X275374Y291711D01*
X275382Y291693D01*
X275487Y291562D01*
X277765Y289284D01*
X277765Y274916D01*
X275384Y272535D01*
X269124Y272535D01*
X269060Y272525D01*
X268994Y272524D01*
X268914Y272501D01*
X268882Y272496D01*
X268865Y272486D01*
X268833Y272477D01*
X267761Y272033D01*
X267193Y272033D01*
X267103Y272019D01*
X267012Y272011D01*
X266982Y271999D01*
X266950Y271994D01*
X266870Y271951D01*
X266786Y271915D01*
X266754Y271889D01*
X266733Y271878D01*
X266731Y271876D01*
X266730Y271876D01*
X266710Y271855D01*
X266655Y271810D01*
X240388Y245543D01*
X240335Y245469D01*
X240275Y245400D01*
X240263Y245370D01*
X240244Y245343D01*
X240217Y245257D01*
X240183Y245172D01*
X240179Y245131D01*
X240172Y245108D01*
X240173Y245076D01*
X240165Y245005D01*
X240165Y228916D01*
X238855Y227606D01*
X238815Y227551D01*
X238768Y227502D01*
X238744Y227452D01*
X238711Y227407D01*
X238691Y227342D01*
X238662Y227280D01*
X238655Y227225D01*
X238639Y227172D01*
X238641Y227104D01*
X238632Y227036D01*
X238641Y226982D01*
X238641Y221623D01*
X229362Y221623D01*
X229342Y221620D01*
X229323Y221622D01*
X229221Y221600D01*
X229119Y221583D01*
X229102Y221574D01*
X229082Y221570D01*
X228993Y221517D01*
X228902Y221468D01*
X228888Y221454D01*
X228871Y221444D01*
X228804Y221365D01*
X228733Y221290D01*
X228724Y221272D01*
X228711Y221257D01*
X228672Y221161D01*
X228629Y221067D01*
X228627Y221047D01*
X228619Y221029D01*
X228601Y220862D01*
X228601Y220099D01*
X228599Y220099D01*
X228599Y220862D01*
X228596Y220882D01*
X228598Y220901D01*
X228576Y221003D01*
X228559Y221105D01*
X228550Y221122D01*
X228546Y221142D01*
X228493Y221231D01*
X228444Y221322D01*
X228430Y221336D01*
X228420Y221353D01*
X228341Y221420D01*
X228266Y221491D01*
X228248Y221500D01*
X228233Y221513D01*
X228137Y221552D01*
X228043Y221595D01*
X228023Y221597D01*
X228005Y221605D01*
X227838Y221623D01*
X218559Y221623D01*
X218559Y226979D01*
X218566Y227004D01*
X218561Y227059D01*
X218567Y227115D01*
X218552Y227181D01*
X218546Y227249D01*
X218525Y227300D01*
X218512Y227355D01*
X218477Y227413D01*
X218450Y227475D01*
X218401Y227537D01*
X218384Y227565D01*
X218368Y227578D01*
X218345Y227606D01*
X217035Y228916D01*
X217035Y232305D01*
X217021Y232395D01*
X217013Y232486D01*
X217001Y232516D01*
X216996Y232548D01*
X216953Y232628D01*
X216917Y232712D01*
X216891Y232744D01*
X216880Y232765D01*
X216857Y232787D01*
X216812Y232843D01*
X198677Y250978D01*
X197865Y252939D01*
X197865Y277383D01*
X197864Y277393D01*
X197864Y277399D01*
X197858Y277429D01*
X197851Y277473D01*
X197843Y277564D01*
X197831Y277594D01*
X197826Y277626D01*
X197783Y277706D01*
X197747Y277790D01*
X197721Y277822D01*
X197710Y277843D01*
X197687Y277865D01*
X197642Y277921D01*
X173258Y302305D01*
X173200Y302347D01*
X173148Y302397D01*
X173101Y302419D01*
X173059Y302449D01*
X172990Y302470D01*
X172925Y302500D01*
X172873Y302506D01*
X172823Y302521D01*
X172752Y302519D01*
X172681Y302527D01*
X172630Y302516D01*
X172578Y302515D01*
X172510Y302490D01*
X172440Y302475D01*
X172395Y302448D01*
X172347Y302430D01*
X172291Y302386D01*
X172229Y302349D01*
X172195Y302309D01*
X172155Y302277D01*
X172116Y302216D01*
X172069Y302162D01*
X172050Y302114D01*
X172022Y302070D01*
X172004Y302000D01*
X171977Y301934D01*
X171969Y301862D01*
X171961Y301831D01*
X171963Y301808D01*
X171959Y301767D01*
X171959Y293283D01*
X171942Y293228D01*
X171942Y293209D01*
X171937Y293189D01*
X171945Y293086D01*
X171948Y292983D01*
X171955Y292964D01*
X171957Y292944D01*
X171997Y292849D01*
X172033Y292752D01*
X172045Y292736D01*
X172053Y292718D01*
X172158Y292587D01*
X182831Y281914D01*
X183643Y279953D01*
X183643Y248426D01*
X183646Y248409D01*
X183644Y248393D01*
X183644Y248390D01*
X183644Y248387D01*
X183666Y248285D01*
X183682Y248183D01*
X183692Y248166D01*
X183696Y248146D01*
X183749Y248057D01*
X183798Y247966D01*
X183812Y247952D01*
X183822Y247935D01*
X183901Y247868D01*
X183976Y247796D01*
X183994Y247788D01*
X184009Y247775D01*
X184105Y247736D01*
X184199Y247693D01*
X184219Y247691D01*
X184237Y247683D01*
X184404Y247665D01*
X186984Y247665D01*
X189365Y245284D01*
X189365Y228916D01*
X188055Y227606D01*
X188015Y227552D01*
X187968Y227503D01*
X187944Y227452D01*
X187911Y227407D01*
X187891Y227342D01*
X187862Y227281D01*
X187855Y227225D01*
X187839Y227172D01*
X187841Y227104D01*
X187832Y227037D01*
X187841Y226983D01*
X187841Y221623D01*
X178562Y221623D01*
X178542Y221620D01*
X178523Y221622D01*
X178421Y221600D01*
X178319Y221583D01*
X178302Y221574D01*
X178282Y221570D01*
X178193Y221517D01*
X178102Y221468D01*
X178088Y221454D01*
X178071Y221444D01*
X178004Y221365D01*
X177933Y221290D01*
X177924Y221272D01*
X177911Y221257D01*
X177872Y221161D01*
X177829Y221067D01*
X177827Y221047D01*
X177819Y221029D01*
X177801Y220862D01*
X177801Y220099D01*
X177799Y220099D01*
X177799Y220862D01*
X177796Y220882D01*
X177798Y220901D01*
X177776Y221003D01*
X177759Y221105D01*
X177750Y221122D01*
X177746Y221142D01*
X177693Y221231D01*
X177644Y221322D01*
X177630Y221336D01*
X177620Y221353D01*
X177541Y221420D01*
X177466Y221491D01*
X177448Y221500D01*
X177433Y221513D01*
X177337Y221552D01*
X177243Y221595D01*
X177223Y221597D01*
X177205Y221605D01*
X177038Y221623D01*
X167759Y221623D01*
X167759Y226979D01*
X167766Y227004D01*
X167761Y227059D01*
X167767Y227115D01*
X167752Y227181D01*
X167746Y227249D01*
X167725Y227300D01*
X167712Y227355D01*
X167677Y227413D01*
X167650Y227475D01*
X167601Y227537D01*
X167584Y227565D01*
X167568Y227578D01*
X167545Y227606D01*
X166235Y228916D01*
X166235Y245284D01*
X168616Y247665D01*
X172212Y247665D01*
X172232Y247668D01*
X172251Y247666D01*
X172353Y247688D01*
X172455Y247704D01*
X172472Y247714D01*
X172492Y247718D01*
X172581Y247771D01*
X172672Y247820D01*
X172686Y247834D01*
X172703Y247844D01*
X172770Y247923D01*
X172842Y247998D01*
X172850Y248016D01*
X172863Y248031D01*
X172902Y248127D01*
X172945Y248221D01*
X172947Y248241D01*
X172955Y248259D01*
X172973Y248426D01*
X172973Y276367D01*
X172959Y276457D01*
X172951Y276548D01*
X172939Y276578D01*
X172934Y276610D01*
X172891Y276690D01*
X172855Y276774D01*
X172829Y276806D01*
X172818Y276827D01*
X172795Y276849D01*
X172750Y276905D01*
X158795Y290860D01*
X158721Y290913D01*
X158652Y290973D01*
X158622Y290985D01*
X158595Y291004D01*
X158509Y291031D01*
X158424Y291065D01*
X158383Y291069D01*
X158360Y291076D01*
X158328Y291075D01*
X158257Y291083D01*
X145890Y291083D01*
X143509Y293464D01*
X143509Y303436D01*
X144335Y304262D01*
X144377Y304320D01*
X144427Y304372D01*
X144449Y304419D01*
X144479Y304461D01*
X144500Y304530D01*
X144530Y304595D01*
X144536Y304647D01*
X144551Y304697D01*
X144549Y304768D01*
X144557Y304839D01*
X144546Y304890D01*
X144545Y304942D01*
X144520Y305010D01*
X144505Y305080D01*
X144478Y305124D01*
X144460Y305173D01*
X144416Y305229D01*
X144379Y305291D01*
X144339Y305325D01*
X144307Y305365D01*
X144246Y305404D01*
X144192Y305451D01*
X144144Y305470D01*
X144100Y305498D01*
X144030Y305516D01*
X143964Y305543D01*
X143892Y305551D01*
X143861Y305559D01*
X143838Y305557D01*
X143797Y305561D01*
X143719Y305561D01*
X141758Y306373D01*
X129077Y319054D01*
X129003Y319107D01*
X128934Y319167D01*
X128904Y319179D01*
X128877Y319198D01*
X128791Y319225D01*
X128706Y319259D01*
X128665Y319263D01*
X128642Y319270D01*
X128610Y319269D01*
X128539Y319277D01*
X111219Y319277D01*
X111129Y319263D01*
X111038Y319255D01*
X111008Y319243D01*
X110976Y319238D01*
X110896Y319195D01*
X110812Y319159D01*
X110779Y319133D01*
X110759Y319122D01*
X110737Y319099D01*
X110681Y319054D01*
X109665Y318038D01*
X109653Y318022D01*
X109637Y318010D01*
X109581Y317922D01*
X109521Y317839D01*
X109515Y317820D01*
X109504Y317803D01*
X109479Y317702D01*
X109449Y317603D01*
X109449Y317584D01*
X109444Y317564D01*
X109452Y317461D01*
X109455Y317358D01*
X109462Y317339D01*
X109464Y317319D01*
X109504Y317224D01*
X109540Y317127D01*
X109552Y317111D01*
X109560Y317093D01*
X109665Y316962D01*
X110491Y316136D01*
X110491Y306164D01*
X109665Y305338D01*
X109653Y305322D01*
X109637Y305310D01*
X109581Y305222D01*
X109521Y305139D01*
X109515Y305120D01*
X109504Y305103D01*
X109479Y305002D01*
X109449Y304903D01*
X109449Y304884D01*
X109444Y304864D01*
X109452Y304761D01*
X109455Y304658D01*
X109462Y304639D01*
X109464Y304619D01*
X109504Y304524D01*
X109540Y304427D01*
X109552Y304411D01*
X109560Y304393D01*
X109665Y304262D01*
X110491Y303436D01*
X110491Y293464D01*
X108110Y291083D01*
X102362Y291083D01*
X102342Y291080D01*
X102323Y291082D01*
X102221Y291060D01*
X102119Y291044D01*
X102102Y291034D01*
X102082Y291030D01*
X101993Y290977D01*
X101902Y290928D01*
X101888Y290914D01*
X101871Y290904D01*
X101804Y290825D01*
X101732Y290750D01*
X101724Y290732D01*
X101711Y290717D01*
X101672Y290621D01*
X101629Y290527D01*
X101627Y290507D01*
X101619Y290489D01*
X101601Y290322D01*
X101601Y274559D01*
X101615Y274469D01*
X101623Y274378D01*
X101635Y274348D01*
X101640Y274316D01*
X101683Y274236D01*
X101719Y274152D01*
X101745Y274120D01*
X101756Y274099D01*
X101779Y274077D01*
X101824Y274021D01*
X131523Y244322D01*
X132335Y242361D01*
X132335Y167117D01*
X132346Y167046D01*
X132348Y166975D01*
X132366Y166926D01*
X132374Y166874D01*
X132408Y166811D01*
X132433Y166744D01*
X132465Y166703D01*
X132490Y166657D01*
X132542Y166608D01*
X132586Y166552D01*
X132630Y166523D01*
X132668Y166487D01*
X132733Y166457D01*
X132793Y166419D01*
X132844Y166406D01*
X132891Y166384D01*
X132962Y166376D01*
X133032Y166358D01*
X133084Y166363D01*
X133135Y166357D01*
X133206Y166372D01*
G37*
G36*
X81370Y320292D02*
X81370Y320292D01*
X81422Y320293D01*
X81490Y320318D01*
X81560Y320333D01*
X81605Y320360D01*
X81653Y320378D01*
X81709Y320422D01*
X81771Y320459D01*
X81805Y320499D01*
X81845Y320531D01*
X81884Y320592D01*
X81931Y320646D01*
X81950Y320694D01*
X81978Y320738D01*
X81996Y320808D01*
X82023Y320874D01*
X82031Y320946D01*
X82039Y320977D01*
X82037Y321000D01*
X82041Y321041D01*
X82041Y328836D01*
X83960Y330755D01*
X83986Y330790D01*
X84018Y330820D01*
X84057Y330889D01*
X84104Y330954D01*
X84117Y330996D01*
X84138Y331035D01*
X84153Y331113D01*
X84176Y331189D01*
X84175Y331233D01*
X84183Y331276D01*
X84172Y331355D01*
X84170Y331435D01*
X84155Y331476D01*
X84149Y331520D01*
X84090Y331653D01*
X84085Y331666D01*
X84083Y331669D01*
X84081Y331674D01*
X83738Y332267D01*
X83565Y332914D01*
X83565Y335027D01*
X95504Y335027D01*
X95524Y335030D01*
X95543Y335028D01*
X95645Y335050D01*
X95747Y335067D01*
X95764Y335076D01*
X95784Y335080D01*
X95873Y335133D01*
X95964Y335182D01*
X95978Y335196D01*
X95995Y335206D01*
X96062Y335285D01*
X96133Y335360D01*
X96142Y335378D01*
X96155Y335393D01*
X96194Y335489D01*
X96237Y335583D01*
X96239Y335603D01*
X96247Y335621D01*
X96265Y335788D01*
X96265Y336551D01*
X96267Y336551D01*
X96267Y335788D01*
X96270Y335768D01*
X96268Y335749D01*
X96290Y335647D01*
X96307Y335545D01*
X96316Y335528D01*
X96320Y335508D01*
X96373Y335419D01*
X96422Y335328D01*
X96436Y335314D01*
X96446Y335297D01*
X96525Y335230D01*
X96600Y335159D01*
X96618Y335150D01*
X96633Y335137D01*
X96729Y335098D01*
X96823Y335055D01*
X96843Y335053D01*
X96861Y335045D01*
X97028Y335027D01*
X108967Y335027D01*
X108967Y332914D01*
X108794Y332267D01*
X108451Y331674D01*
X108435Y331633D01*
X108412Y331596D01*
X108392Y331518D01*
X108364Y331443D01*
X108362Y331400D01*
X108351Y331357D01*
X108358Y331278D01*
X108355Y331198D01*
X108367Y331156D01*
X108371Y331112D01*
X108402Y331038D01*
X108425Y330962D01*
X108450Y330926D01*
X108467Y330886D01*
X108558Y330772D01*
X108566Y330761D01*
X108569Y330759D01*
X108572Y330755D01*
X109157Y330170D01*
X109231Y330116D01*
X109300Y330057D01*
X109330Y330045D01*
X109356Y330026D01*
X109444Y329999D01*
X109528Y329965D01*
X109569Y329961D01*
X109592Y329954D01*
X109624Y329955D01*
X109695Y329947D01*
X132125Y329947D01*
X134086Y329135D01*
X142210Y321011D01*
X142268Y320969D01*
X142320Y320919D01*
X142367Y320898D01*
X142409Y320867D01*
X142478Y320846D01*
X142543Y320816D01*
X142595Y320810D01*
X142645Y320795D01*
X142716Y320797D01*
X142787Y320789D01*
X142838Y320800D01*
X142890Y320801D01*
X142958Y320826D01*
X143028Y320841D01*
X143073Y320868D01*
X143121Y320886D01*
X143177Y320930D01*
X143239Y320967D01*
X143273Y321007D01*
X143313Y321039D01*
X143352Y321100D01*
X143399Y321154D01*
X143418Y321202D01*
X143446Y321246D01*
X143464Y321316D01*
X143491Y321382D01*
X143499Y321454D01*
X143507Y321485D01*
X143505Y321508D01*
X143509Y321549D01*
X143509Y328836D01*
X144335Y329662D01*
X144347Y329678D01*
X144363Y329690D01*
X144419Y329778D01*
X144479Y329861D01*
X144485Y329880D01*
X144496Y329897D01*
X144521Y329998D01*
X144551Y330097D01*
X144551Y330116D01*
X144556Y330136D01*
X144548Y330239D01*
X144545Y330342D01*
X144538Y330361D01*
X144536Y330381D01*
X144496Y330476D01*
X144460Y330573D01*
X144448Y330589D01*
X144440Y330607D01*
X144335Y330738D01*
X143509Y331564D01*
X143509Y341536D01*
X145890Y343917D01*
X169758Y343917D01*
X169813Y343900D01*
X169833Y343900D01*
X169853Y343895D01*
X169955Y343903D01*
X170059Y343906D01*
X170078Y343913D01*
X170098Y343915D01*
X170193Y343955D01*
X170290Y343990D01*
X170306Y344003D01*
X170324Y344011D01*
X170455Y344116D01*
X196622Y370283D01*
X198583Y371095D01*
X254874Y371095D01*
X254894Y371098D01*
X254913Y371096D01*
X255015Y371118D01*
X255117Y371134D01*
X255134Y371144D01*
X255154Y371148D01*
X255243Y371201D01*
X255334Y371250D01*
X255348Y371264D01*
X255365Y371274D01*
X255432Y371353D01*
X255504Y371428D01*
X255512Y371446D01*
X255525Y371461D01*
X255564Y371557D01*
X255607Y371651D01*
X255609Y371671D01*
X255617Y371689D01*
X255635Y371856D01*
X255635Y372784D01*
X258016Y375165D01*
X263673Y375165D01*
X263763Y375179D01*
X263854Y375187D01*
X263884Y375199D01*
X263916Y375204D01*
X263996Y375247D01*
X264080Y375283D01*
X264112Y375309D01*
X264133Y375320D01*
X264155Y375343D01*
X264211Y375388D01*
X297718Y408895D01*
X297771Y408969D01*
X297831Y409038D01*
X297843Y409068D01*
X297862Y409095D01*
X297889Y409181D01*
X297923Y409266D01*
X297927Y409307D01*
X297934Y409330D01*
X297933Y409362D01*
X297941Y409433D01*
X297941Y420974D01*
X297938Y420994D01*
X297940Y421013D01*
X297918Y421115D01*
X297902Y421217D01*
X297892Y421234D01*
X297888Y421254D01*
X297835Y421343D01*
X297786Y421434D01*
X297772Y421448D01*
X297762Y421465D01*
X297683Y421532D01*
X297608Y421604D01*
X297590Y421612D01*
X297575Y421625D01*
X297479Y421664D01*
X297385Y421707D01*
X297365Y421709D01*
X297347Y421717D01*
X297180Y421735D01*
X294916Y421735D01*
X292638Y424013D01*
X292622Y424025D01*
X292610Y424041D01*
X292522Y424097D01*
X292439Y424157D01*
X292420Y424163D01*
X292403Y424174D01*
X292302Y424199D01*
X292203Y424229D01*
X292184Y424229D01*
X292164Y424234D01*
X292061Y424226D01*
X291958Y424223D01*
X291939Y424216D01*
X291919Y424214D01*
X291824Y424174D01*
X291727Y424138D01*
X291711Y424126D01*
X291693Y424118D01*
X291562Y424013D01*
X289284Y421735D01*
X273916Y421735D01*
X271535Y424116D01*
X271535Y425196D01*
X271532Y425216D01*
X271534Y425235D01*
X271512Y425337D01*
X271496Y425439D01*
X271486Y425456D01*
X271482Y425476D01*
X271429Y425565D01*
X271380Y425656D01*
X271366Y425670D01*
X271356Y425687D01*
X271277Y425754D01*
X271202Y425826D01*
X271184Y425834D01*
X271169Y425847D01*
X271073Y425886D01*
X270979Y425929D01*
X270959Y425931D01*
X270941Y425939D01*
X270774Y425957D01*
X248926Y425957D01*
X248906Y425954D01*
X248887Y425956D01*
X248785Y425934D01*
X248683Y425918D01*
X248666Y425908D01*
X248646Y425904D01*
X248557Y425851D01*
X248466Y425802D01*
X248452Y425788D01*
X248435Y425778D01*
X248368Y425699D01*
X248296Y425624D01*
X248288Y425606D01*
X248275Y425591D01*
X248236Y425495D01*
X248193Y425401D01*
X248191Y425381D01*
X248183Y425363D01*
X248165Y425196D01*
X248165Y423116D01*
X245784Y420735D01*
X231416Y420735D01*
X229138Y423013D01*
X229122Y423025D01*
X229110Y423041D01*
X229022Y423097D01*
X228939Y423157D01*
X228920Y423163D01*
X228903Y423174D01*
X228802Y423199D01*
X228703Y423229D01*
X228684Y423229D01*
X228664Y423234D01*
X228561Y423226D01*
X228458Y423223D01*
X228439Y423216D01*
X228419Y423214D01*
X228324Y423174D01*
X228227Y423138D01*
X228211Y423126D01*
X228193Y423118D01*
X228062Y423013D01*
X225784Y420735D01*
X211416Y420735D01*
X209035Y423116D01*
X209035Y425196D01*
X209032Y425216D01*
X209034Y425235D01*
X209012Y425337D01*
X208996Y425439D01*
X208986Y425456D01*
X208982Y425476D01*
X208929Y425565D01*
X208880Y425656D01*
X208866Y425670D01*
X208856Y425687D01*
X208777Y425754D01*
X208702Y425826D01*
X208684Y425834D01*
X208669Y425847D01*
X208573Y425886D01*
X208479Y425929D01*
X208459Y425931D01*
X208441Y425939D01*
X208274Y425957D01*
X148326Y425957D01*
X148306Y425954D01*
X148287Y425956D01*
X148185Y425934D01*
X148083Y425918D01*
X148066Y425908D01*
X148046Y425904D01*
X147957Y425851D01*
X147866Y425802D01*
X147852Y425788D01*
X147835Y425778D01*
X147768Y425699D01*
X147696Y425624D01*
X147688Y425606D01*
X147675Y425591D01*
X147636Y425495D01*
X147593Y425401D01*
X147591Y425381D01*
X147583Y425363D01*
X147565Y425196D01*
X147565Y424116D01*
X145184Y421735D01*
X143596Y421735D01*
X143576Y421732D01*
X143557Y421734D01*
X143455Y421712D01*
X143353Y421696D01*
X143336Y421686D01*
X143316Y421682D01*
X143227Y421629D01*
X143136Y421580D01*
X143122Y421566D01*
X143105Y421556D01*
X143038Y421477D01*
X142966Y421402D01*
X142958Y421384D01*
X142945Y421369D01*
X142906Y421273D01*
X142863Y421179D01*
X142861Y421159D01*
X142853Y421141D01*
X142835Y420974D01*
X142835Y403139D01*
X142023Y401178D01*
X117322Y376477D01*
X115361Y375665D01*
X91425Y375665D01*
X91335Y375651D01*
X91244Y375643D01*
X91214Y375631D01*
X91182Y375626D01*
X91102Y375583D01*
X91018Y375547D01*
X90986Y375521D01*
X90965Y375510D01*
X90943Y375487D01*
X90887Y375442D01*
X69058Y353613D01*
X69005Y353539D01*
X68945Y353470D01*
X68933Y353440D01*
X68914Y353413D01*
X68887Y353327D01*
X68853Y353242D01*
X68849Y353201D01*
X68842Y353178D01*
X68843Y353146D01*
X68835Y353075D01*
X68835Y332725D01*
X68849Y332635D01*
X68857Y332544D01*
X68869Y332514D01*
X68874Y332482D01*
X68917Y332402D01*
X68953Y332318D01*
X68979Y332286D01*
X68990Y332265D01*
X69013Y332243D01*
X69058Y332187D01*
X80742Y320503D01*
X80800Y320461D01*
X80852Y320411D01*
X80899Y320390D01*
X80941Y320359D01*
X81010Y320338D01*
X81075Y320308D01*
X81127Y320302D01*
X81177Y320287D01*
X81248Y320289D01*
X81319Y320281D01*
X81370Y320292D01*
G37*
%LPC*%
G36*
X204723Y103123D02*
X204723Y103123D01*
X204723Y123641D01*
X223034Y123641D01*
X223681Y123468D01*
X224260Y123133D01*
X224733Y122660D01*
X225068Y122081D01*
X225241Y121434D01*
X225241Y103123D01*
X204723Y103123D01*
G37*
%LPD*%
%LPC*%
G36*
X181159Y103123D02*
X181159Y103123D01*
X181159Y121434D01*
X181332Y122081D01*
X181667Y122660D01*
X182140Y123133D01*
X182719Y123468D01*
X183366Y123641D01*
X201677Y123641D01*
X201677Y103123D01*
X181159Y103123D01*
G37*
%LPD*%
%LPC*%
G36*
X204723Y79559D02*
X204723Y79559D01*
X204723Y100077D01*
X225241Y100077D01*
X225241Y81766D01*
X225068Y81119D01*
X224733Y80540D01*
X224260Y80067D01*
X223681Y79732D01*
X223034Y79559D01*
X204723Y79559D01*
G37*
%LPD*%
%LPC*%
G36*
X183366Y79559D02*
X183366Y79559D01*
X182719Y79732D01*
X182140Y80067D01*
X181667Y80540D01*
X181332Y81119D01*
X181159Y81766D01*
X181159Y100077D01*
X201677Y100077D01*
X201677Y79559D01*
X183366Y79559D01*
G37*
%LPD*%
%LPC*%
G36*
X230123Y211059D02*
X230123Y211059D01*
X230123Y218577D01*
X238641Y218577D01*
X238641Y213266D01*
X238468Y212619D01*
X238133Y212040D01*
X237660Y211567D01*
X237081Y211232D01*
X236434Y211059D01*
X230123Y211059D01*
G37*
%LPD*%
%LPC*%
G36*
X179323Y211059D02*
X179323Y211059D01*
X179323Y218577D01*
X187841Y218577D01*
X187841Y213266D01*
X187668Y212619D01*
X187333Y212040D01*
X186860Y211567D01*
X186281Y211232D01*
X185634Y211059D01*
X179323Y211059D01*
G37*
%LPD*%
%LPC*%
G36*
X220766Y211059D02*
X220766Y211059D01*
X220119Y211232D01*
X219540Y211567D01*
X219067Y212040D01*
X218732Y212619D01*
X218559Y213266D01*
X218559Y218577D01*
X227077Y218577D01*
X227077Y211059D01*
X220766Y211059D01*
G37*
%LPD*%
%LPC*%
G36*
X169966Y211059D02*
X169966Y211059D01*
X169319Y211232D01*
X168740Y211567D01*
X168267Y212040D01*
X167932Y212619D01*
X167759Y213266D01*
X167759Y218577D01*
X176277Y218577D01*
X176277Y211059D01*
X169966Y211059D01*
G37*
%LPD*%
%LPC*%
G36*
X55023Y433323D02*
X55023Y433323D01*
X55023Y441341D01*
X59334Y441341D01*
X59981Y441168D01*
X60560Y440833D01*
X61033Y440360D01*
X61368Y439781D01*
X61541Y439134D01*
X61541Y433323D01*
X55023Y433323D01*
G37*
%LPD*%
%LPC*%
G36*
X55023Y422259D02*
X55023Y422259D01*
X55023Y430277D01*
X61541Y430277D01*
X61541Y424466D01*
X61368Y423819D01*
X61033Y423240D01*
X60560Y422767D01*
X59981Y422432D01*
X59334Y422259D01*
X55023Y422259D01*
G37*
%LPD*%
%LPC*%
G36*
X45459Y433323D02*
X45459Y433323D01*
X45459Y439134D01*
X45632Y439781D01*
X45967Y440360D01*
X46440Y440833D01*
X47019Y441168D01*
X47666Y441341D01*
X51977Y441341D01*
X51977Y433323D01*
X45459Y433323D01*
G37*
%LPD*%
%LPC*%
G36*
X47666Y422259D02*
X47666Y422259D01*
X47019Y422432D01*
X46440Y422767D01*
X45967Y423240D01*
X45632Y423819D01*
X45459Y424466D01*
X45459Y430277D01*
X51977Y430277D01*
X51977Y422259D01*
X47666Y422259D01*
G37*
%LPD*%
%LPC*%
G36*
X97789Y338073D02*
X97789Y338073D01*
X97789Y342393D01*
X106760Y342393D01*
X107407Y342220D01*
X107986Y341885D01*
X108459Y341412D01*
X108794Y340833D01*
X108967Y340186D01*
X108967Y338073D01*
X97789Y338073D01*
G37*
%LPD*%
%LPC*%
G36*
X83565Y338073D02*
X83565Y338073D01*
X83565Y340186D01*
X83738Y340833D01*
X84073Y341412D01*
X84546Y341885D01*
X85125Y342220D01*
X85772Y342393D01*
X94743Y342393D01*
X94743Y338073D01*
X83565Y338073D01*
G37*
%LPD*%
%LPC*%
G36*
X53499Y431799D02*
X53499Y431799D01*
X53499Y431801D01*
X53501Y431801D01*
X53501Y431799D01*
X53499Y431799D01*
G37*
%LPD*%
%LPC*%
G36*
X203199Y101599D02*
X203199Y101599D01*
X203199Y101601D01*
X203201Y101601D01*
X203201Y101599D01*
X203199Y101599D01*
G37*
%LPD*%
D10*
X0Y0D02*
X339600Y0D01*
X339600Y482500D01*
X0Y482500D01*
X0Y0D01*
X15240Y25400D02*
X15243Y25649D01*
X15252Y25899D01*
X15268Y26147D01*
X15289Y26396D01*
X15316Y26644D01*
X15350Y26891D01*
X15390Y27137D01*
X15435Y27382D01*
X15487Y27626D01*
X15544Y27869D01*
X15608Y28110D01*
X15677Y28349D01*
X15753Y28587D01*
X15834Y28823D01*
X15921Y29057D01*
X16013Y29288D01*
X16112Y29517D01*
X16215Y29744D01*
X16325Y29968D01*
X16440Y30189D01*
X16560Y30408D01*
X16685Y30623D01*
X16816Y30836D01*
X16952Y31045D01*
X17093Y31250D01*
X17239Y31452D01*
X17390Y31651D01*
X17546Y31845D01*
X17707Y32036D01*
X17872Y32223D01*
X18042Y32406D01*
X18216Y32584D01*
X18394Y32758D01*
X18577Y32928D01*
X18764Y33093D01*
X18955Y33254D01*
X19149Y33410D01*
X19348Y33561D01*
X19550Y33707D01*
X19755Y33848D01*
X19964Y33984D01*
X20177Y34115D01*
X20392Y34240D01*
X20611Y34360D01*
X20832Y34475D01*
X21056Y34585D01*
X21283Y34688D01*
X21512Y34787D01*
X21743Y34879D01*
X21977Y34966D01*
X22213Y35047D01*
X22451Y35123D01*
X22690Y35192D01*
X22931Y35256D01*
X23174Y35313D01*
X23418Y35365D01*
X23663Y35410D01*
X23909Y35450D01*
X24156Y35484D01*
X24404Y35511D01*
X24653Y35532D01*
X24901Y35548D01*
X25151Y35557D01*
X25400Y35560D01*
X25649Y35557D01*
X25899Y35548D01*
X26147Y35532D01*
X26396Y35511D01*
X26644Y35484D01*
X26891Y35450D01*
X27137Y35410D01*
X27382Y35365D01*
X27626Y35313D01*
X27869Y35256D01*
X28110Y35192D01*
X28349Y35123D01*
X28587Y35047D01*
X28823Y34966D01*
X29057Y34879D01*
X29288Y34787D01*
X29517Y34688D01*
X29744Y34585D01*
X29968Y34475D01*
X30189Y34360D01*
X30408Y34240D01*
X30623Y34115D01*
X30836Y33984D01*
X31045Y33848D01*
X31250Y33707D01*
X31452Y33561D01*
X31651Y33410D01*
X31845Y33254D01*
X32036Y33093D01*
X32223Y32928D01*
X32406Y32758D01*
X32584Y32584D01*
X32758Y32406D01*
X32928Y32223D01*
X33093Y32036D01*
X33254Y31845D01*
X33410Y31651D01*
X33561Y31452D01*
X33707Y31250D01*
X33848Y31045D01*
X33984Y30836D01*
X34115Y30623D01*
X34240Y30408D01*
X34360Y30189D01*
X34475Y29968D01*
X34585Y29744D01*
X34688Y29517D01*
X34787Y29288D01*
X34879Y29057D01*
X34966Y28823D01*
X35047Y28587D01*
X35123Y28349D01*
X35192Y28110D01*
X35256Y27869D01*
X35313Y27626D01*
X35365Y27382D01*
X35410Y27137D01*
X35450Y26891D01*
X35484Y26644D01*
X35511Y26396D01*
X35532Y26147D01*
X35548Y25899D01*
X35557Y25649D01*
X35560Y25400D01*
X35557Y25151D01*
X35548Y24901D01*
X35532Y24653D01*
X35511Y24404D01*
X35484Y24156D01*
X35450Y23909D01*
X35410Y23663D01*
X35365Y23418D01*
X35313Y23174D01*
X35256Y22931D01*
X35192Y22690D01*
X35123Y22451D01*
X35047Y22213D01*
X34966Y21977D01*
X34879Y21743D01*
X34787Y21512D01*
X34688Y21283D01*
X34585Y21056D01*
X34475Y20832D01*
X34360Y20611D01*
X34240Y20392D01*
X34115Y20177D01*
X33984Y19964D01*
X33848Y19755D01*
X33707Y19550D01*
X33561Y19348D01*
X33410Y19149D01*
X33254Y18955D01*
X33093Y18764D01*
X32928Y18577D01*
X32758Y18394D01*
X32584Y18216D01*
X32406Y18042D01*
X32223Y17872D01*
X32036Y17707D01*
X31845Y17546D01*
X31651Y17390D01*
X31452Y17239D01*
X31250Y17093D01*
X31045Y16952D01*
X30836Y16816D01*
X30623Y16685D01*
X30408Y16560D01*
X30189Y16440D01*
X29968Y16325D01*
X29744Y16215D01*
X29517Y16112D01*
X29288Y16013D01*
X29057Y15921D01*
X28823Y15834D01*
X28587Y15753D01*
X28349Y15677D01*
X28110Y15608D01*
X27869Y15544D01*
X27626Y15487D01*
X27382Y15435D01*
X27137Y15390D01*
X26891Y15350D01*
X26644Y15316D01*
X26396Y15289D01*
X26147Y15268D01*
X25899Y15252D01*
X25649Y15243D01*
X25400Y15240D01*
X25151Y15243D01*
X24901Y15252D01*
X24653Y15268D01*
X24404Y15289D01*
X24156Y15316D01*
X23909Y15350D01*
X23663Y15390D01*
X23418Y15435D01*
X23174Y15487D01*
X22931Y15544D01*
X22690Y15608D01*
X22451Y15677D01*
X22213Y15753D01*
X21977Y15834D01*
X21743Y15921D01*
X21512Y16013D01*
X21283Y16112D01*
X21056Y16215D01*
X20832Y16325D01*
X20611Y16440D01*
X20392Y16560D01*
X20177Y16685D01*
X19964Y16816D01*
X19755Y16952D01*
X19550Y17093D01*
X19348Y17239D01*
X19149Y17390D01*
X18955Y17546D01*
X18764Y17707D01*
X18577Y17872D01*
X18394Y18042D01*
X18216Y18216D01*
X18042Y18394D01*
X17872Y18577D01*
X17707Y18764D01*
X17546Y18955D01*
X17390Y19149D01*
X17239Y19348D01*
X17093Y19550D01*
X16952Y19755D01*
X16816Y19964D01*
X16685Y20177D01*
X16560Y20392D01*
X16440Y20611D01*
X16325Y20832D01*
X16215Y21056D01*
X16112Y21283D01*
X16013Y21512D01*
X15921Y21743D01*
X15834Y21977D01*
X15753Y22213D01*
X15677Y22451D01*
X15608Y22690D01*
X15544Y22931D01*
X15487Y23174D01*
X15435Y23418D01*
X15390Y23663D01*
X15350Y23909D01*
X15316Y24156D01*
X15289Y24404D01*
X15268Y24653D01*
X15252Y24901D01*
X15243Y25151D01*
X15240Y25400D01*
D11*
X228600Y237100D03*
X228600Y220100D03*
X177800Y237100D03*
X177800Y220100D03*
D12*
X96266Y336550D03*
X157734Y336550D03*
X96266Y323850D03*
X96266Y311150D03*
X157734Y323850D03*
X157734Y311150D03*
X96266Y298450D03*
X157734Y298450D03*
D13*
X281600Y431800D03*
X302600Y431800D03*
X116500Y431800D03*
X137500Y431800D03*
D14*
X266700Y345600D03*
X266700Y365600D03*
X266700Y282100D03*
X266700Y302100D03*
D15*
X53500Y431800D03*
X73500Y431800D03*
X218600Y431800D03*
X238600Y431800D03*
D16*
X203200Y101600D03*
D17*
X285200Y101600D03*
X121200Y101600D03*
D18*
X239268Y431292D02*
X280416Y431292D01*
X281600Y431800D01*
X239268Y431292D02*
X238600Y431800D01*
X217932Y431292D02*
X138684Y431292D01*
X137500Y431800D01*
X217932Y431292D02*
X218600Y431800D01*
X137160Y431292D02*
X137160Y425196D01*
X97536Y310896D02*
X96266Y311150D01*
X137160Y431292D02*
X137500Y431800D01*
X137500Y404200D01*
X96266Y311150D02*
X82550Y311150D01*
X114300Y381000D02*
X137500Y404200D01*
X114300Y381000D02*
X88900Y381000D01*
X63500Y355600D01*
X63500Y330200D01*
X82550Y311150D01*
X74676Y431292D02*
X115824Y431292D01*
X116500Y431800D01*
X74676Y431292D02*
X73500Y431800D01*
D19*
X38100Y330200D03*
X177800Y393700D03*
X152400Y254000D03*
X304800Y203200D03*
X127000Y304800D03*
X190500Y457200D03*
D18*
X266700Y345600D02*
X266700Y324612D01*
X266700Y302100D01*
X266700Y324612D02*
X158496Y324612D01*
X157734Y323850D01*
X266700Y279400D02*
X266700Y277368D01*
X266700Y279400D02*
X266700Y282100D01*
X131064Y324612D02*
X97536Y324612D01*
X131064Y324612D02*
X144780Y310896D01*
X156972Y310896D01*
X97536Y324612D02*
X96266Y323850D01*
X156972Y310896D02*
X157734Y311150D01*
X158496Y310896D02*
X172212Y310896D01*
X158496Y310896D02*
X157734Y311150D01*
X228600Y241300D02*
X228600Y237100D01*
X228600Y241300D02*
X266700Y279400D01*
X203200Y279908D02*
X172212Y310896D01*
X203200Y279908D02*
X203200Y254000D01*
X220100Y237100D01*
X228600Y237100D01*
X178308Y237744D02*
X178308Y278892D01*
X158496Y298704D01*
X178308Y237744D02*
X177800Y237100D01*
X157734Y298450D02*
X158496Y298704D01*
X279400Y102108D02*
X284988Y102108D01*
X279400Y102108D02*
X278892Y102108D01*
X121920Y102108D02*
X121200Y101600D01*
X284988Y102108D02*
X285200Y101600D01*
X303276Y406908D02*
X303276Y431292D01*
X268224Y371856D02*
X266700Y370332D01*
X268224Y371856D02*
X303276Y406908D01*
X266700Y370332D02*
X266700Y365760D01*
X303276Y431292D02*
X302600Y431800D01*
X96266Y298450D02*
X96012Y298704D01*
X156972Y336804D02*
X157734Y336550D01*
X199644Y365760D02*
X266700Y365760D01*
X199644Y365760D02*
X170688Y336804D01*
X158496Y336804D01*
X266700Y365600D02*
X266700Y365760D01*
X158496Y336804D02*
X157734Y336550D01*
X252984Y221488D02*
X305816Y274320D01*
X305816Y334264D01*
X268224Y371856D01*
X252984Y221488D02*
X252984Y190500D01*
X254000Y190500D01*
X279400Y165100D01*
X279400Y102108D01*
X241300Y177800D02*
X254000Y190500D01*
X241300Y177800D02*
X152400Y177800D01*
X127000Y152400D01*
X127000Y114300D01*
X127000Y107188D02*
X127000Y101600D01*
X96266Y272034D02*
X96266Y298450D01*
X127000Y241300D02*
X127000Y152400D01*
X127000Y241300D02*
X96266Y272034D01*
X127000Y114300D02*
X127000Y107188D01*
X121920Y102108D01*
M02*
